<svg width="17" height="17" viewBox="0 0 17 17" fill="none" xmlns="http://www.w3.org/2000/svg">
<path d="M6.2205 5.52495C6.3633 4.7829 6.55795 4.1165 6.79 3.55295C7.04585 2.9299 7.3408 2.45305 7.6468 2.1394C7.9511 1.8266 8.23925 1.69995 8.5002 1.69995C8.76115 1.69995 9.0493 1.8266 9.3536 2.1394C9.6596 2.4539 9.95455 2.9299 10.2104 3.55295C10.4424 4.1165 10.6371 4.7829 10.7799 5.52495H6.2205ZM6.00375 3.22995C6.18527 2.77259 6.42129 2.33879 6.7067 1.93795C5.77263 2.19439 4.90394 2.64694 4.1585 3.26546C3.41306 3.88397 2.80799 4.65424 2.3836 5.52495H5.35605C5.51075 4.669 5.7309 3.89125 6.00375 3.22995ZM10.9966 3.22995C10.8151 2.77289 10.579 2.33938 10.2937 1.9388C11.2277 2.19515 12.0963 2.64757 12.8418 3.26593C13.5872 3.88429 14.1923 4.6544 14.6168 5.52495H11.6443C11.4896 4.669 11.2695 3.89125 10.9966 3.22995ZM11.7727 6.37495H14.9619C15.1608 6.98015 15.2764 7.62275 15.2968 8.29C14.6706 7.86769 13.9313 7.64485 13.176 7.6508C12.717 7.6508 12.2852 7.7273 11.8891 7.86755C11.8723 7.36855 11.8334 6.87053 11.7727 6.37495ZM11.0493 8.29425C11.043 7.6524 10.9985 7.0115 10.9159 6.37495H6.0845C5.99304 7.07956 5.94817 7.78943 5.9502 8.49995C5.9502 9.2437 5.9978 9.95685 6.0845 10.625H9.4692C9.7004 9.66615 10.2597 8.8323 11.0493 8.29425ZM9.35275 11.475H6.2205C6.3633 12.217 6.55795 12.8834 6.79 13.447C7.04585 14.07 7.3408 14.5469 7.6468 14.8605C7.9511 15.1733 8.23925 15.3 8.5002 15.3C8.76115 15.3 9.0493 15.1733 9.3536 14.8605C9.5695 14.6395 9.7803 14.3361 9.9758 13.957C9.55845 13.1631 9.3502 12.3675 9.3502 11.6297L9.35275 11.475ZM2.3836 11.475C2.80817 12.3456 3.41342 13.1158 4.15901 13.7341C4.9046 14.3525 5.77341 14.8049 6.70755 15.0611C6.42197 14.6608 6.18566 14.2276 6.00375 13.7708C5.73175 13.1078 5.51075 12.3309 5.35605 11.475H2.3836ZM5.2277 10.625H2.0385C1.81367 9.93906 1.69947 9.22175 1.7002 8.49995C1.7002 7.7579 1.8192 7.0439 2.0385 6.37495H5.2277C5.1444 7.0507 5.1002 7.76385 5.1002 8.49995C5.1002 9.23605 5.1444 9.9492 5.2277 10.625ZM16.1502 11.6297C16.1502 9.9016 14.9049 8.5008 13.176 8.5008C11.4471 8.5008 10.2002 9.9016 10.2002 11.6297C10.2002 12.9251 11.0349 14.6302 12.9678 16.0803C13.091 16.1738 13.261 16.1738 13.3843 16.0803C15.3189 14.6302 16.1502 12.9251 16.1502 11.6297ZM14.4502 11.475C14.4502 11.8131 14.3159 12.1374 14.0768 12.3765C13.8377 12.6156 13.5133 12.75 13.1752 12.75C12.837 12.75 12.5127 12.6156 12.2736 12.3765C12.0345 12.1374 11.9002 11.8131 11.9002 11.475C11.9002 11.1368 12.0345 10.8125 12.2736 10.5734C12.5127 10.3343 12.837 10.2 13.1752 10.2C13.5133 10.2 13.8377 10.3343 14.0768 10.5734C14.3159 10.8125 14.4502 11.1368 14.4502 11.475Z" fill="white"/>
</svg>
