<svg width="48" height="45" viewBox="0 0 48 45" fill="none" xmlns="http://www.w3.org/2000/svg">
<g clip-path="url(#clip0_330_1745)">
<path d="M47.6846 13.0772C47.6846 9.12217 44.5815 5.94053 40.7471 5.94053C35.5533 5.71289 30.2565 5.625 24.8433 5.625H23.1558C17.7558 5.625 12.4496 5.71289 7.25584 5.94141C3.43084 5.94141 0.327719 9.14062 0.327719 13.0957C0.0933435 16.2237 -0.00603146 19.3526 -0.000406461 22.4815C-0.00978146 25.6104 0.0964686 28.7423 0.318344 31.877C0.318344 35.8321 3.42147 39.0401 7.24647 39.0401C12.7027 39.2774 18.2996 39.3829 23.9902 39.3741C29.6902 39.3917 35.2715 39.2804 40.734 39.0401C44.5683 39.0401 47.6715 35.8321 47.6715 31.877C47.8965 28.7394 47.9996 25.6104 47.9902 22.4728C48.0115 19.3438 47.9096 16.212 47.6846 13.0772ZM19.4058 31.1036V13.8331L32.9996 22.464L19.4058 31.1036Z" fill="white"/>
</g>
<defs>
<clipPath id="clip0_330_1745">
<rect width="48" height="45" fill="white"/>
</clipPath>
</defs>
</svg>
