<svg width="45" height="45" viewBox="0 0 45 45" fill="none" xmlns="http://www.w3.org/2000/svg">
<g clip-path="url(#clip0_231_125)">
<path d="M44.7047 13.0772C44.7047 9.12217 41.7956 5.94053 38.2008 5.94053C33.3317 5.71289 28.3659 5.625 23.2911 5.625H21.709C16.6465 5.625 11.6719 5.71289 6.80278 5.94141C3.21684 5.94141 0.307663 9.14062 0.307663 13.0957C0.0879368 16.2237 -0.00522725 19.3526 4.61887e-05 22.4815C-0.00874287 25.6104 0.0908665 28.7423 0.298874 31.877C0.298874 35.8321 3.20805 39.0401 6.79399 39.0401C11.9092 39.2774 17.1563 39.3829 22.4913 39.3741C27.835 39.3917 33.0674 39.2804 38.1885 39.0401C41.7832 39.0401 44.6924 35.8321 44.6924 31.877C44.9034 28.7394 45 25.6104 44.9913 22.4728C45.0112 19.3438 44.9157 16.212 44.7047 13.0772ZM18.1934 31.1036V13.8331L30.9375 22.464L18.1934 31.1036Z" fill="white"/>
</g>
<defs>
<clipPath id="clip0_231_125">
<rect width="45" height="45" fill="white"/>
</clipPath>
</defs>
</svg>
