<svg width="47" height="45" viewBox="0 0 47 45" fill="none" xmlns="http://www.w3.org/2000/svg">
<path d="M43.984 11.25C42.476 11.9062 40.8506 12.3375 39.1665 12.5438C40.8898 11.55 42.2215 9.975 42.8481 8.08125C41.2227 9.01875 39.421 9.675 37.5215 10.05C35.9744 8.4375 33.8006 7.5 31.3331 7.5C26.731 7.5 22.971 11.1 22.971 15.5437C22.971 16.1812 23.0494 16.8 23.1865 17.3813C16.2148 17.0438 10.0069 13.8375 5.87479 8.98125C5.15021 10.1625 4.73896 11.55 4.73896 13.0125C4.73896 15.8063 6.20771 18.2812 8.47938 19.6875C7.08896 19.6875 5.79646 19.3125 4.66063 18.75V18.8062C4.66063 22.7062 7.55896 25.9687 11.3973 26.7C10.1652 27.0243 8.87111 27.0692 7.61771 26.8313C8.1496 28.4296 9.1913 29.8283 10.5964 30.8305C12.0014 31.8327 13.6992 32.3882 15.451 32.4188C12.4816 34.6697 8.80056 35.8864 5.01313 35.8687C4.34729 35.8687 3.68146 35.8312 3.01562 35.7562C6.73646 38.0437 11.1623 39.375 15.9015 39.375C31.3331 39.375 39.8127 27.1125 39.8127 16.4812C39.8127 16.125 39.8127 15.7875 39.7931 15.4312C41.4381 14.3062 42.8481 12.8813 43.984 11.25Z" fill="white"/>
</svg>
