<svg width="17" height="17" viewBox="0 0 17 17" fill="none" xmlns="http://www.w3.org/2000/svg">
<path fill-rule="evenodd" clip-rule="evenodd" d="M4.06106 1.44717C4.9231 0.590089 6.3426 0.742381 7.06439 1.70713L7.95831 2.89996C8.54622 3.6848 8.49381 4.7813 7.7961 5.47476L7.62752 5.64334C7.60848 5.71412 7.60654 5.78841 7.62185 5.86009C7.66647 6.14909 7.90802 6.76109 8.91952 7.76692C9.93102 8.77276 10.5473 9.01359 10.8405 9.05892C10.9143 9.07462 10.9908 9.07244 11.0636 9.05255L11.3526 8.76496C11.9731 8.14871 12.9251 8.03326 13.693 8.45046L15.0459 9.18713C16.2054 9.81613 16.498 11.3915 15.5488 12.3357L14.5423 13.3358C14.2249 13.651 13.7985 13.9138 13.2786 13.9627C11.9965 14.0824 9.00947 13.9294 5.86943 10.8078C2.93906 7.89371 2.37664 5.35221 2.3051 4.09988C2.26968 3.46663 2.5686 2.93113 2.94968 2.55288L4.06106 1.44717Z" fill="white"/>
</svg>
